<svg width="638" height="179" viewBox="0 0 638 179" fill="none" xmlns="http://www.w3.org/2000/svg">
<path fill-rule="evenodd" clip-rule="evenodd" d="M363.7 142.6C364.9 172.6 408.3 170.7 414.4 171.5C418.7 171.8 423.7 173.5 419.1 174.9C338.3 188.3 315.9 157.8 317.8 122.9C321.4 55.5 448.3 64.3 417.1 43.6C436.8 37.9 486.3 50.8 482.3 69.6C473.7 109.7 367.4 96 363.7 142.6Z" fill="#76BC21"/>
<path fill-rule="evenodd" clip-rule="evenodd" d="M341.8 11C340.2 25.2 338.6 39.5 336.9 53.7C376.5 36.7 442.6 27.4 482.5 52.7C483.2 18 459.2 4.59999 434.7 1.79999C406.3 -1.40001 367.9 4.4 341.8 11Z" fill="#FF8300"/>
<path fill-rule="evenodd" clip-rule="evenodd" d="M480.1 145.8C480.1 145.6 480.2 145.5 480.2 145.3C480.8 142 480.9 139.8 480.9 139.8C482.6 121.3 480.4 88.3 480.4 88.3C464.2 101.8 453.3 101.1 438.7 108.4C415.2 120 412.7 145.5 426 160.7C440.5 177.4 469.5 176.8 477.6 154.8C477.6 154.7 477.7 154.6 477.7 154.5C478.9 151.4 479.6 148.3 480.1 145.8Z" fill="#FF8300"/>
<path d="M503.4 8.29999H637.4V48.9L567.8 134.5H637.4V175.1H503.4V134.5L573 48.9H503.4V8.29999Z" fill="#76BC21"/>
<path fill-rule="evenodd" clip-rule="evenodd" d="M317.6 5.70001C317.6 5.70001 270.8 1.7 247.4 23.4V8.39999H191.9V175.2H247.4V91.4C247.4 90.3 247.4 89.2 247.5 88.1C248.4 81.8 250.6 75.8 254 70.3C258.9 62.4 265.5 56.6 273.6 52.9C281.2 50.1 289.6 48.5 298.5 48.5C303.5 48.5 308.3 49 312.9 49.9L313.3 46.1L317.6 5.70001Z" fill="#76BC21"/>
<path fill-rule="evenodd" clip-rule="evenodd" d="M22.7 11.4L17.8 55C17.8 55 66.4 37.1 95.8 37C95.8 37 104 36.3 105.4 42.2C106.8 48.1 98.3 50.7 98.3 50.7C98.3 50.7 97.1 51.2 94.9 51.9C68.8 61.8 2.8 71.3 0.200003 120.9C-1.4 151.6 14.9 178.9 71 177.2C78.1 176.9 94.7 175.7 111.4 171L116.2 169.5V175H162.4V141.8V69.1V53.3C166.5 -29.7 22.7 11.4 22.7 11.4ZM65.1 138.2C52.9 128 55.2 111 76.7 103.2C90.1 98.3 100.1 98.8 115 89.8C115 89.8 117.5 116.9 114.8 127.9C114.5 129.5 113.9 131.2 113 133C106.6 149 78.8 149.7 65.1 138.2Z" fill="#76BC21"/>
</svg>
